<svg xmlns="http://www.w3.org/2000/svg" width="94" height="70"><g fill="none" fill-rule="evenodd"><path fill="#0AF" d="M16.62 55.905h60.438V21.153H16.621z"/><path fill="#424242" d="M90.656 61.95v3.02c0 .834-.678 1.513-1.51 1.513H4.533c-.833 0-1.51-.679-1.51-1.513v-3.02h87.633zm-64.97-13.6c0 .833-.678 1.512-1.51 1.512a1.514 1.514 0 0 1-1.512-1.511c0-.834.678-1.512 1.511-1.512.833 0 1.511.678 1.511 1.512zm10.577-13.597c0-.834.679-1.513 1.51-1.513a1.513 1.513 0 0 1 .001 3.023c-.832 0-1.51-.678-1.51-1.51zm21.153 9.064c0 .833-.678 1.511-1.51 1.511a1.514 1.514 0 0 1-1.513-1.51 1.513 1.513 0 0 1 3.023 0zM13.598 19.642c0-.832.679-1.51 1.511-1.51h60.487L57.67 39.642a4.514 4.514 0 0 0-4.903.917L42.25 35.302c.022-.183.056-.362.056-.548a4.54 4.54 0 0 0-4.533-4.534 4.54 4.54 0 0 0-4.533 4.534c0 .697.17 1.349.455 1.94l-7.577 7.579a4.479 4.479 0 0 0-1.944-.455 4.54 4.54 0 0 0-4.533 4.534 4.538 4.538 0 0 0 4.533 4.532c2.5 0 4.532-2.033 4.532-4.532 0-.699-.17-1.351-.454-1.943l7.578-7.576a4.493 4.493 0 0 0 1.943.452c1.219 0 2.322-.49 3.139-1.275l10.515 5.259c-.022.183-.056.362-.056.55a4.54 4.54 0 0 0 4.533 4.533 4.54 4.54 0 0 0 4.534-4.534c0-.77-.21-1.482-.55-2.117L79.33 18.367c.44.266.75.727.75 1.275v39.284H13.598V19.642zm75.548-16.62c.832 0 1.51.678 1.51 1.511 0 .832-.678 1.51-1.51 1.51s-1.51-.678-1.51-1.51c0-.833.678-1.51 1.51-1.51zm-6.044 16.62c0-1.48-.723-2.782-1.823-3.611l6.102-7.324a4.47 4.47 0 0 0 1.765.36 4.54 4.54 0 0 0 4.533-4.534A4.54 4.54 0 0 0 89.146 0a4.54 4.54 0 0 0-4.533 4.533c0 .769.21 1.481.55 2.118l-7.05 8.458H15.11a4.538 4.538 0 0 0-4.532 4.533v39.284H0v6.044a4.54 4.54 0 0 0 4.533 4.534h84.613a4.54 4.54 0 0 0 4.533-4.534v-6.044H83.102V19.642z"/></g></svg>