<svg xmlns="http://www.w3.org/2000/svg" xmlns:xlink="http://www.w3.org/1999/xlink" width="30" height="30" viewBox="0 0 30 30">
    <defs>
        <path id="a" d="M0 0h29.922v29.922H0z"/>
    </defs>
    <g fill="none" fill-rule="evenodd">
        <mask id="b" fill="#fff">
            <use xlink:href="#a"/>
        </mask>
        <path fill="#9B9B9B" d="M18.547 23.34c-.76 0-1.474-.198-2.1-.543a7.507 7.507 0 0 1-1.403.132c-4.23 0-7.658-3.528-7.658-7.88 0-.542.053-1.073.155-1.584a4.658 4.658 0 0 1-.61-2.312c0-2.524 1.99-4.57 4.44-4.57.87 0 1.68.258 2.364.7a7.6 7.6 0 0 1 1.309-.113c4.231 0 7.66 3.528 7.66 7.879 0 .581-.063 1.146-.177 1.69a4.66 4.66 0 0 1 .462 2.03c0 2.524-1.99 4.571-4.442 4.571M14.96 0C6.698 0 0 6.698 0 14.96c0 8.264 6.698 14.962 14.96 14.962 8.264 0 14.962-6.698 14.962-14.962C29.922 6.698 23.224 0 14.96 0m3.375 14.73a5.44 5.44 0 0 0-1.311-.616 17.577 17.577 0 0 0-1.694-.455c-.49-.117-.847-.207-1.059-.268a3.231 3.231 0 0 1-.616-.246 1.35 1.35 0 0 1-.457-.356.703.703 0 0 1-.154-.459c0-.293.156-.54.475-.756.332-.223.778-.336 1.327-.336.592 0 1.022.102 1.279.304.264.207.496.5.687.875.165.292.314.495.457.626.156.14.378.212.66.212.313 0 .577-.115.787-.339a1.09 1.09 0 0 0 .314-.76c0-.293-.08-.595-.24-.9-.157-.3-.407-.59-.745-.86-.333-.27-.76-.488-1.264-.65-.503-.16-1.104-.241-1.787-.241-.855 0-1.612.123-2.248.365-.644.245-1.145.6-1.487 1.06-.345.463-.519 1-.519 1.595 0 .626.166 1.157.495 1.58.324.417.767.75 1.316.99.538.235 1.212.444 2.008.619.584.126 1.056.246 1.405.357.333.108.608.264.817.464.199.193.296.436.296.748 0 .392-.185.715-.567.983-.391.274-.91.412-1.544.412-.46 0-.834-.068-1.11-.202a1.728 1.728 0 0 1-.644-.511 4.05 4.05 0 0 1-.44-.804c-.122-.292-.273-.52-.449-.674a.992.992 0 0 0-.674-.242c-.321 0-.59.103-.8.306-.21.205-.319.455-.319.744 0 .461.164.94.49 1.423.323.48.747.866 1.262 1.152.72.393 1.642.592 2.742.592.915 0 1.721-.146 2.393-.434.678-.289 1.202-.698 1.557-1.213a3.063 3.063 0 0 0 .535-1.759c0-.543-.104-1.01-.312-1.388a2.644 2.644 0 0 0-.862-.937" mask="url(#b)"/>
    </g>
</svg>
