<svg xmlns="http://www.w3.org/2000/svg" xmlns:xlink="http://www.w3.org/1999/xlink" width="30" height="30" viewBox="0 0 30 30">
    <defs>
        <path id="a" d="M0 30h30.003V0H0z"/>
    </defs>
    <g fill="none" fill-rule="evenodd">
        <path fill="#9B9B9B" d="M29.933 14.988c0 8.244-6.701 14.927-14.967 14.927C6.701 29.915 0 23.232 0 14.988S6.7.061 14.966.061c8.266 0 14.967 6.683 14.967 14.927"/>
        <mask id="b" fill="#fff">
            <use xlink:href="#a"/>
        </mask>
        <path fill="#FFF" d="M7.824 20.114h3.218V10.46H7.824v9.654zm1.63-14.308c-1.1 0-1.82.72-1.82 1.667 0 .927.699 1.67 1.778 1.67h.022c1.122 0 1.82-.743 1.82-1.67-.021-.947-.698-1.667-1.8-1.667zm13.192 8.772v5.536H19.43v-5.165c0-1.297-.466-2.183-1.63-2.183-.89 0-1.419.597-1.652 1.174-.085.206-.106.493-.106.782v5.392h-3.219s.043-8.748 0-9.654h3.218v1.368c-.006.01-.015.021-.02.031h.02v-.031c.428-.657 1.192-1.595 2.9-1.595 2.119 0 3.706 1.38 3.706 4.345z" mask="url(#b)"/>
    </g>
</svg>
