<svg xmlns="http://www.w3.org/2000/svg" width="64" height="70" viewBox="0 0 64 70">
    <g fill="none" fill-rule="evenodd">
        <path fill="#0AF" d="M42.154 55.826H21.646v-3.052c0-3.164-1.244-6.338-3.505-8.939a18.164 18.164 0 0 1-4.47-12.044c.058-9.541 7.848-17.66 17.366-18.1 5.046-.227 9.815 1.55 13.45 5.023 3.638 3.475 5.643 8.157 5.643 13.187 0 4.466-1.64 8.764-4.615 12.101a13.163 13.163 0 0 0-3.36 8.764v3.06z"/>
        <path fill="#424242" d="M56.363 37.35a24.844 24.844 0 0 1-3.313 7.993l-.49.771 3.508 3.51-6.443 6.444-3.51-3.508-.772.49c-.662.423-1.418.827-2.237 1.232a3.383 3.383 0 0 0-2.09-.736h-18.23c-.792 0-1.51.282-2.092.736a23.515 23.515 0 0 1-2.236-1.233l-.772-.49-3.51 3.509-6.444-6.444 3.51-3.51-.492-.772a24.872 24.872 0 0 1-3.313-7.993l-.198-.892H2.28v-9.115h4.96l.198-.892a24.878 24.878 0 0 1 3.313-7.993l.492-.771-3.51-3.51 6.444-6.444 3.51 3.51.772-.492a24.86 24.86 0 0 1 7.993-3.313l.893-.198V2.28h9.114v4.96l.891.198c2.843.63 5.53 1.744 7.994 3.313l.771.492 3.511-3.51 6.443 6.444-3.508 3.51.49.772a24.819 24.819 0 0 1 3.313 7.993l.199.892h4.96v9.115h-4.96l-.199.891zM25.064 67.217a1.14 1.14 0 0 1 0-2.279h13.672a1.14 1.14 0 0 1 0 2.28H25.064zm14.811-4.557h-15.95a1.14 1.14 0 0 1 0-2.278h15.95a1.138 1.138 0 1 1 0 2.278zm-17.089-4.557a1.14 1.14 0 1 1 0-2.278h18.228a1.14 1.14 0 1 1 0 2.278H22.786zM63.8 25.064h-5.426a27.173 27.173 0 0 0-2.922-7.049l3.838-3.839-9.666-9.665-3.839 3.837a27.102 27.102 0 0 0-7.05-2.922V0h-13.67v5.426a27.143 27.143 0 0 0-7.05 2.922l-3.839-3.837-9.665 9.665 3.837 3.84a27.12 27.12 0 0 0-2.921 7.048H0v13.672h5.427a27.14 27.14 0 0 0 2.921 7.049l-3.837 3.84 9.665 9.666 3.841-3.841c.45.259.934.515 1.439.768-.054.241-.088.49-.088.747 0 1.214.64 2.276 1.596 2.88a3.38 3.38 0 0 0-.457 1.677c0 1.214.64 2.276 1.596 2.88a3.383 3.383 0 0 0-.457 1.677 3.423 3.423 0 0 0 3.418 3.418h13.672a3.423 3.423 0 0 0 3.418-3.418c0-.612-.175-1.177-.458-1.676a3.407 3.407 0 0 0 1.597-2.881c0-.612-.175-1.177-.458-1.676a3.406 3.406 0 0 0 1.597-2.881c0-.257-.035-.506-.089-.748.505-.252.99-.508 1.439-.768l3.842 3.84 9.666-9.665-3.84-3.84a27.072 27.072 0 0 0 2.924-7.05H63.8v-13.67z"/>
        <path fill="#424242" d="M30.5 38H33v16h-2.5z"/>
        <circle cx="31.75" cy="33" r="4" fill="#FFF" stroke="#424242" stroke-width="2.5"/>
    </g>
</svg>
