<svg xmlns="http://www.w3.org/2000/svg" xmlns:xlink="http://www.w3.org/1999/xlink" width="72" height="72" viewBox="0 0 72 72">
    <defs>
        <circle id="a" cx="35" cy="35" r="35"/>
        <filter id="b" width="108.6%" height="108.6%" x="-4.3%" y="-4.3%" filterUnits="objectBoundingBox">
            <feGaussianBlur in="SourceAlpha" result="shadowBlurInner1" stdDeviation="2.5"/>
            <feOffset in="shadowBlurInner1" result="shadowOffsetInner1"/>
            <feComposite in="shadowOffsetInner1" in2="SourceAlpha" k2="-1" k3="1" operator="arithmetic" result="shadowInnerInner1"/>
            <feColorMatrix in="shadowInnerInner1" values="0 0 0 0 0 0 0 0 0 0 0 0 0 0 0 0 0 0 0.5 0"/>
        </filter>
    </defs>
    <g fill="none" fill-rule="evenodd">
        <g transform="translate(1 1)">
            <use fill="#4A4A4A" xlink:href="#a"/>
            <use fill="#000" filter="url(#b)" xlink:href="#a"/>
            <use stroke="#FFF" xlink:href="#a"/>
        </g>
        <path fill="#FFF" d="M27.266 30.955a.89.89 0 0 0 0 1.27.898.898 0 0 0 1.258 0l6.437-6.438v21.242c0 .496.395.891.891.891a.898.898 0 0 0 .902-.891V25.787l6.422 6.438a.912.912 0 0 0 1.27 0 .89.89 0 0 0 0-1.27l-7.96-7.961a.871.871 0 0 0-1.255 0l-7.965 7.961z"/>
    </g>
</svg>
