<svg xmlns="http://www.w3.org/2000/svg" xmlns:xlink="http://www.w3.org/1999/xlink" width="91" height="70" viewBox="0 0 91 70">
    <defs>
        <path id="a" d="M0 70h91V0H0z"/>
    </defs>
    <g fill="none" fill-rule="evenodd">
        <path fill="#424242" d="M86.46 41.758H73.728c-1.473 0-2.72-1.09-2.903-2.53l-1.38-10.886-15.473 13.332L65.54 53.067a4.17 4.17 0 0 1 1.244 2.957 4.185 4.185 0 0 1-2.422 3.777l-16.295 7.084a1.61 1.61 0 0 1-2.07-.72 1.55 1.55 0 0 1-.08-1.265 1.58 1.58 0 0 1 .888-.915l12.864-5.279a2.4 2.4 0 0 0 1.496-2.011 2.388 2.388 0 0 0-1.113-2.24L45.074 44.97c-2.517-1.596-4.02-4.306-4.02-7.254 0-2.662 1.22-5.135 3.346-6.78l18.606-14.396-3.164-3.11H39.541a1.504 1.504 0 0 1-1.514-1.49c0-.824.68-1.493 1.514-1.493h20.861c.826 0 1.627.287 2.254.817l8.77 7.41 3.14 20.103h11.893c.834 0 1.514.667 1.514 1.49 0 .824-.68 1.492-1.514 1.492M80.405 2.98c4.174 0 7.568 3.344 7.568 7.455 0 4.111-3.394 7.455-7.568 7.455-4.173 0-7.567-3.344-7.567-7.455 0-4.11 3.394-7.455 7.567-7.455m6.054 32.814h-9.295L74.562 19.14a10.652 10.652 0 0 0 5.843 1.735C86.248 20.875 91 16.19 91 10.437 91 4.683 86.248 0 80.405 0c-5.843 0-10.594 4.681-10.594 10.437 0 1.21.22 2.367.607 3.447L64.627 9a6.549 6.549 0 0 0-4.225-1.534H39.541C37.037 7.466 35 9.472 35 11.939c0 2.466 2.037 4.473 4.54 4.473h18.74L42.528 28.597c-2.86 2.214-4.501 5.538-4.501 9.122 0 3.965 2.021 7.612 5.41 9.76l14.047 8.893-11.84 4.86a4.604 4.604 0 0 0-2.569 2.641 4.52 4.52 0 0 0 .232 3.654C44.125 69.09 45.744 70 47.428 70c.626 0 1.26-.126 1.864-.39l16.322-7.097c2.548-1.168 4.197-3.717 4.197-6.49a7.154 7.154 0 0 0-2.132-5.065l-9.276-9.138 8.745-7.54.675 5.317c.37 2.93 2.908 5.142 5.904 5.142h12.732c2.502 0 4.541-2.006 4.541-4.472 0-2.467-2.037-4.473-4.54-4.473"/>
        <path fill="#424242" d="M21.763 66.296a2.167 2.167 0 0 1-2.898.337 2.158 2.158 0 0 1-.896-1.494 2.163 2.163 0 0 1 .487-1.674l19.617-23.571L35.807 38 16.188 61.573a5.154 5.154 0 0 0-1.146 3.944 5.152 5.152 0 0 0 2.108 3.526 5.114 5.114 0 0 0 6.833-.798L41 48.79l-2.221-1.947-17.016 19.453z"/>
        <mask id="b" fill="#fff">
            <use xlink:href="#a"/>
        </mask>
        <path fill="#424242" d="M12 22h32v-3H12zM3 22h6v-3H3zM15 28h22v-3H15zM6 28h6v-3H6zM16 34h19v-3H16zM9 34h4v-3H9zM9 16h25v-3H9zM0 16h6v-3H0z" mask="url(#b)"/>
        <path fill="#0AF" d="M3 19h31v-3H3zM6 25h38v-3H6zM9 31h28v-3H9zM12 37h24v-3H12z" mask="url(#b)"/>
    </g>
</svg>
