<svg xmlns="http://www.w3.org/2000/svg" xmlns:xlink="http://www.w3.org/1999/xlink" width="70" height="70" viewBox="0 0 70 70">
    <defs>
        <path id="a" d="M0 70h70V0H0z"/>
    </defs>
    <g fill="none" fill-rule="evenodd">
        <path fill="#0AF" d="M35 27.097a2.257 2.257 0 1 1-.001-4.515A2.257 2.257 0 0 1 35 27.097m0-12.42c-5.603 0-10.161 4.558-10.161 10.162 0 3.386 1.715 6.562 4.516 8.44v3.98h11.29v-3.98a10.196 10.196 0 0 0 4.516-8.44c0-5.604-4.558-10.162-10.161-10.162"/>
        <path fill="#333" d="M13.548 21.452H2.258v-1.13a5.652 5.652 0 0 1 5.645-5.645 5.652 5.652 0 0 1 5.645 5.646v1.129zM3.388 6.774a4.52 4.52 0 0 1 4.515-4.516 4.52 4.52 0 0 1 4.516 4.516 4.52 4.52 0 0 1-4.516 4.516 4.52 4.52 0 0 1-4.516-4.516zm12.418 13.549c0-3.374-2.129-6.252-5.11-7.384 2.344-1.067 3.981-3.426 3.981-6.165A6.781 6.781 0 0 0 7.903 0 6.781 6.781 0 0 0 1.13 6.774c0 2.74 1.637 5.098 3.981 6.165C2.13 14.07 0 16.949 0 20.323v3.387h15.806v-3.387zM40.645 67.742h-11.29v-1.13A5.652 5.652 0 0 1 35 60.969a5.652 5.652 0 0 1 5.645 5.645v1.129zM30.484 53.065A4.52 4.52 0 0 1 35 48.548a4.52 4.52 0 0 1 4.516 4.517A4.52 4.52 0 0 1 35 57.58a4.52 4.52 0 0 1-4.516-4.516zm7.31 6.164c2.343-1.067 3.98-3.425 3.98-6.164A6.781 6.781 0 0 0 35 46.29a6.781 6.781 0 0 0-6.774 6.775c0 2.739 1.637 5.097 3.98 6.164-2.98 1.132-5.11 4.01-5.11 7.384V70h15.807v-3.387c0-3.374-2.13-6.252-5.11-7.384zM67.742 21.452h-11.29v-1.13a5.652 5.652 0 0 1 5.645-5.645 5.652 5.652 0 0 1 5.645 5.646v1.129zM57.58 6.774a4.52 4.52 0 0 1 4.516-4.516 4.52 4.52 0 0 1 4.516 4.516 4.52 4.52 0 0 1-4.516 4.516 4.52 4.52 0 0 1-4.516-4.516zm7.309 6.165c2.344-1.067 3.981-3.426 3.981-6.165A6.781 6.781 0 0 0 62.097 0a6.781 6.781 0 0 0-6.774 6.774c0 2.74 1.637 5.098 3.98 6.165-2.98 1.132-5.11 4.01-5.11 7.384v3.387H70v-3.387c0-3.374-2.13-6.252-5.11-7.384zM44.229 51.298l16.94-24.835 1.866 1.272-16.94 24.835zM6.968 27.733l1.866-1.272 16.934 24.838-1.865 1.272z"/>
        <mask id="b" fill="#fff">
            <use xlink:href="#a"/>
        </mask>
        <path fill="#333" d="M18.967 4.516h32.066V2.258H18.967zM38.952 41.774h-7.904a.566.566 0 0 1-.564-.564c0-.31.254-.565.564-.565h7.904c.31 0 .564.254.564.565 0 .31-.254.564-.564.564m-9.033-4.516h10.162c.31 0 .564.254.564.565 0 .31-.254.564-.564.564H29.919a.566.566 0 0 1-.564-.564c0-.31.254-.565.564-.565M35 23.71a1.13 1.13 0 1 1 0 2.259 1.13 1.13 0 0 1 0-2.26M40.08 35H36.13v-6.982a3.382 3.382 0 0 0 2.258-3.18A3.391 3.391 0 0 0 35 21.453a3.391 3.391 0 0 0-3.387 3.387c0 1.47.947 2.712 2.258 3.18V35h-3.952a2.825 2.825 0 0 0-2.822 2.823c0 1.004.53 1.88 1.322 2.382-.12.313-.193.649-.193 1.005a2.825 2.825 0 0 0 2.822 2.822h7.904a2.825 2.825 0 0 0 2.822-2.822c0-.356-.073-.692-.193-1.005a2.818 2.818 0 0 0 1.322-2.382A2.825 2.825 0 0 0 40.081 35M33.871 12.42h2.258V7.902h-2.258zM25.555 10.737l1.956-1.129 2.257 3.912-1.955 1.128zM19.769 17.353l1.129-1.956 3.911 2.258-1.129 1.956zM18.065 25.968h4.516V23.71h-4.516zM19.769 32.33l3.911-2.258 1.13 1.956-3.912 2.257zM45.191 32.026l1.129-1.956 3.912 2.258-1.13 1.956zM47.42 25.968h4.515V23.71H47.42zM45.194 17.65l3.911-2.257 1.129 1.956-3.912 2.258zM40.23 13.517l2.258-3.911 1.956 1.129-2.258 3.91z" mask="url(#b)"/>
    </g>
</svg>
