<svg xmlns="http://www.w3.org/2000/svg" width="30" height="30" viewBox="0 0 30 30">
    <g fill="#FFF" fill-rule="evenodd">
        <path d="M5.98 1.064C6.654.659 7.326.314 8 0H0v8c.874-2.578 2.853-5.054 5.98-6.936M18.544 4.873c-3.442-.775-6.982-.01-9.806 1.607C6.205 7.93 5.44 9.852 6.399 11.5c2.542 4.366 16.745-7.668 22.715 2.59.363.625.66 1.263.886 1.91V0H19.168l-.624 4.873zM22.91 29.502c-.304.176-.607.34-.91.498h8v-8c-.972 2.7-3.26 5.302-7.09 7.502M9.543 25.49a14.03 14.03 0 0 0 11.028-1.363c3.258-1.894 3.978-4.33 3.062-5.929-2.846-4.962-16.935 7.767-22.99-2.787A9.108 9.108 0 0 1 0 14v16h9.113l.43-4.51z"/>
    </g>
</svg>
