<svg xmlns="http://www.w3.org/2000/svg" width="20" height="20" viewBox="0 0 20 20">
    <g fill="none" fill-rule="evenodd">
        <ellipse cx="10" cy="9.688" fill="#CAA334" rx="10" ry="9.688" transform="translate(0 .625)"/>
        <ellipse cx="10" cy="9.688" fill="#EDC03D" rx="10" ry="9.688"/>
        <path fill="#000" d="M4.355 13.563l6 5.812c5.226-.188 9.42-4.25 9.613-9.313l-4.387-4.25-11.226 7.75z" opacity=".15"/>
        <path fill="#FFFCF2" d="M15.161 5.625H4.84a.637.637 0 0 0-.645.625v6.875c0 .344.29.625.645.625H15.16a.637.637 0 0 0 .645-.625V6.25a.637.637 0 0 0-.645-.625z"/>
        <path fill="#344E5F" d="M10 10.688L4.194 6.405V6.5l5.354 5.188c.13.124.29.187.452.187.161 0 .355-.063.452-.188L15.806 6.5v-.094L10 10.688z" opacity=".149"/>
    </g>
</svg>
