<svg xmlns="http://www.w3.org/2000/svg" width="165" height="20" viewBox="0 0 165 20">
    <g fill="#FFF" fill-rule="evenodd">
        <path d="M25 16.923l2.694-3.745a9.014 9.014 0 0 0 6.309 2.555c1.747 0 2.813-.668 2.813-1.597 0-2.641-11.195-.522-11.195-7.983C25.621 2.903 28.435 0 33.5 0c3.168 0 5.923.929 8.025 2.7l-2.784 3.57c-1.658-1.336-3.82-2.003-5.775-2.003-1.48 0-2.132.58-2.132 1.393 0 2.468 11.166.668 11.166 7.867C42 17.417 39.067 20 33.767 20c-3.999 0-6.783-1.22-8.767-3.077M58.846 10c0-3.16-2.092-5.594-5.33-5.594-3.271 0-5.362 2.435-5.362 5.594 0 3.13 2.091 5.595 5.361 5.595 3.24 0 5.33-2.464 5.33-5.595M43 10c0-5.884 4.506-10 10.515-10C59.523 0 64 4.116 64 10c0 5.885-4.477 10-10.485 10C47.505 20 43 15.885 43 10M68 19V0h14v4.274h-9.075v2.961H81.8v4.273h-8.875V19zM89.49 19V4.274H84V0h16v4.274h-5.46V19zM104 19V0h14v4.274h-9.075v2.961h8.875v4.273h-8.875v3.22H118V19zM120 16.923l2.695-3.745a9.014 9.014 0 0 0 6.308 2.555c1.748 0 2.814-.668 2.814-1.597 0-2.641-11.195-.522-11.195-7.983 0-3.25 2.814-6.153 7.878-6.153 3.169 0 5.923.929 8.026 2.7l-2.784 3.57c-1.658-1.336-3.82-2.003-5.775-2.003-1.48 0-2.132.58-2.132 1.393 0 2.468 11.165.668 11.165 7.867 0 3.89-2.932 6.473-8.233 6.473-3.999 0-6.783-1.22-8.767-3.077M140 19h5V0h-5zM148 16.923l2.695-3.745a9.014 9.014 0 0 0 6.308 2.555c1.748 0 2.814-.668 2.814-1.597 0-2.641-11.195-.522-11.195-7.983 0-3.25 2.814-6.153 7.878-6.153 3.169 0 5.923.929 8.026 2.7l-2.784 3.57c-1.658-1.336-3.82-2.003-5.775-2.003-1.48 0-2.132.58-2.132 1.393 0 2.468 11.165.668 11.165 7.867 0 3.89-2.932 6.473-8.233 6.473-3.999 0-6.783-1.22-8.767-3.077"/>
        <g>
            <path d="M4.217.682c.475-.26.95-.48 1.424-.682H0v5.128C.616 3.476 2.012 1.888 4.217.682M12.412 3.28c-2.28-.522-4.625-.007-6.496 1.082-1.678.976-2.184 2.27-1.549 3.378C6.05 10.68 15.458 2.58 19.413 9.484c.24.42.437.85.587 1.285V0h-7.175l-.413 3.28zM15.456 19.681c-.196.112-.39.217-.584.319H20v-5.128c-.623 1.73-2.09 3.399-4.544 4.81M6.321 16.965a9.164 9.164 0 0 0 7.305-.918c2.158-1.275 2.635-2.915 2.028-3.99C13.77 8.717 4.437 17.284.426 10.18A6.179 6.179 0 0 1 0 9.23V20h6.037l.284-3.035z"/>
        </g>
    </g>
</svg>
