<svg xmlns="http://www.w3.org/2000/svg" xmlns:xlink="http://www.w3.org/1999/xlink" width="20" height="20" viewBox="0 0 20 20">
    <defs>
        <path id="a" d="M0 .048h18.761v18.747H.001z"/>
    </defs>
    <g fill="none" fill-rule="evenodd">
        <g transform="translate(0 1.149)">
            <mask id="b" fill="#fff">
                <use xlink:href="#a"/>
            </mask>
            <path fill="#4A4A4A" d="M17.305 15.645c-.004 0-.004.004 0 0-.165.177-.334.336-.515.512-.274.26-.553.534-.815.84-.426.454-.929.668-1.587.668-.063 0-.131 0-.194-.004-1.254-.08-2.42-.567-3.293-.983a18.741 18.741 0 0 1-6.231-4.854c-1.44-1.726-2.402-3.322-3.04-5.036-.393-1.045-.536-1.86-.473-2.628.043-.492.232-.9.583-1.248L3.18 1.48c.206-.193.426-.298.641-.298.266 0 .481.16.616.294l.013.013c.258.24.502.487.76.751.131.135.266.27.401.408l1.153 1.146c.447.445.447.857 0 1.302-.123.122-.241.244-.363.361a22.03 22.03 0 0 1-1.06 1.025c-.008.008-.017.013-.021.02-.363.362-.296.715-.22.954l.013.038c.3.722.722 1.403 1.364 2.213l.004.004c1.165 1.428 2.393 2.541 3.748 3.393.174.11.35.198.52.282.152.075.295.147.418.222.017.009.034.021.05.03a.92.92 0 0 0 .418.105c.35 0 .57-.219.642-.29l1.444-1.436c.143-.143.371-.315.637-.315.262 0 .477.164.608.306l2.335 2.323c.435.428.435.87.004 1.314zm-1.511-4.422c-.41-.424-.904-.65-1.427-.65-.52 0-1.018.222-1.444.646l-1.334 1.323c-.11-.06-.22-.114-.325-.168-.152-.076-.296-.147-.418-.223-1.25-.79-2.385-1.818-3.475-3.15-.527-.663-.882-1.222-1.14-1.788.347-.315.668-.643.98-.958.118-.117.236-.24.355-.357.886-.882.886-2.024 0-2.906L6.413 1.846c-.13-.13-.266-.265-.392-.4-.254-.26-.52-.528-.794-.78-.41-.404-.9-.618-1.414-.618-.515 0-1.013.214-1.436.618L2.37.674.933 2.114a3.066 3.066 0 0 0-.916 1.953c-.1 1.226.262 2.369.54 3.116.685 1.835 1.706 3.536 3.23 5.359a19.852 19.852 0 0 0 6.616 5.153c.97.457 2.267.999 3.715 1.091.088.005.181.009.266.009.975 0 1.794-.349 2.436-1.042.004-.008.012-.012.016-.02.22-.265.473-.505.74-.76.18-.173.366-.354.548-.543.418-.432.637-.936.637-1.453 0-.52-.223-1.02-.65-1.44l-2.317-2.314z" mask="url(#b)"/>
        </g>
        <path fill="#4A4A4A" d="M10.795 4.779a5.364 5.364 0 0 1 2.913 1.503A5.344 5.344 0 0 1 15.22 9.18c.046.277.287.47.561.47.034 0 .063-.004.097-.008a.568.568 0 0 0 .469-.655 6.466 6.466 0 0 0-1.828-3.507 6.523 6.523 0 0 0-3.525-1.818.573.573 0 0 0-.659.462.561.561 0 0 0 .46.655M19.965 8.823a10.638 10.638 0 0 0-3.01-5.774A10.732 10.732 0 0 0 11.15.055a.567.567 0 0 0-.654.462c-.051.31.156.6.468.655a9.609 9.609 0 0 1 5.189 2.675 9.497 9.497 0 0 1 2.689 5.161c.046.277.287.47.561.47.034 0 .064-.004.097-.008a.557.557 0 0 0 .465-.647"/>
    </g>
</svg>
