<svg xmlns="http://www.w3.org/2000/svg" xmlns:xlink="http://www.w3.org/1999/xlink" width="26" height="20" viewBox="0 0 26 20">
    <defs>
        <path id="a" d="M0 .051h25.976v19.881H0z"/>
    </defs>
    <g fill="none" fill-rule="evenodd">
        <g transform="translate(0 .016)">
            <mask id="b" fill="#fff">
                <use xlink:href="#a"/>
            </mask>
            <path fill="#FFF" d="M24.53 16.738c0 .957-.774 1.735-1.725 1.735H3.177a1.732 1.732 0 0 1-1.726-1.735V3.251c0-.956.774-1.735 1.726-1.735h19.622c.952 0 1.726.779 1.726 1.735v13.487h.005zM22.805.051H3.177C1.424.051 0 1.484 0 3.246v13.492c0 1.762 1.424 3.194 3.177 3.194h19.622c1.753 0 3.177-1.432 3.177-3.194V3.251c.005-1.762-1.42-3.2-3.171-3.2z" mask="url(#b)"/>
        </g>
        <path fill="#FFF" d="M16.382 9.84l6.353-5.73a.736.736 0 0 0 .054-1.032.726.726 0 0 0-1.027-.054l-8.76 7.908-1.71-1.535c-.005-.005-.01-.01-.01-.016a1.106 1.106 0 0 0-.119-.103l-6.955-6.26a.722.722 0 0 0-1.026.06.732.732 0 0 0 .059 1.033l6.428 5.778-6.401 6.027a.736.736 0 0 0-.032 1.033.725.725 0 0 0 1.027.038l6.497-6.114 1.763 1.584a.723.723 0 0 0 .968-.006l1.81-1.632 6.461 6.173a.723.723 0 0 0 1.026-.027.735.735 0 0 0-.026-1.033l-6.38-6.091z"/>
    </g>
</svg>
