<svg xmlns="http://www.w3.org/2000/svg" xmlns:xlink="http://www.w3.org/1999/xlink" width="30" height="30" viewBox="0 0 30 30">
    <defs>
        <path id="a" d="M0 0h30v30H0z"/>
    </defs>
    <g fill="none" fill-rule="evenodd">
        <path fill="#9B9B9B" d="M20.098 9.704l-9.353 5.76a.942.942 0 0 0-.412 1.06l1.011 3.553c.072.252.438.226.473-.034l.263-1.948a1.6 1.6 0 0 1 .495-.958l7.72-7.175c.144-.134-.03-.361-.197-.258"/>
        <g>
            <mask id="b" fill="#fff">
                <use xlink:href="#a"/>
            </mask>
            <path fill="#9B9B9B" d="M29.423 15zm-4.628-8.362l-3.524 16.954a.564.564 0 0 1-.884.341l-4.811-3.493a.796.796 0 0 0-.97.027l-2.668 2.175a.563.563 0 0 1-.895-.27l-1.852-5.957-4.786-1.786a.564.564 0 0 1-.005-1.055l19.64-7.577a.564.564 0 0 1 .755.641zM15 0C6.716 0 0 6.716 0 15c0 8.284 6.716 15 15 15 8.284 0 15-6.716 15-15 0-8.284-6.716-15-15-15z" mask="url(#b)"/>
        </g>
    </g>
</svg>
