<svg xmlns="http://www.w3.org/2000/svg" xmlns:xlink="http://www.w3.org/1999/xlink" width="210" height="359"><defs><path id="a" d="M.207.291h25.51V35H.207z"/><path id="c" d="M0 .074h22.548v23.654H0z"/><path id="e" d="M.246.339h70.379v170.456H.245z"/><path id="g" d="M.206.252h29.676v19.436H.206z"/></defs><g fill="none" fill-rule="evenodd"><path fill="#8AA5AD" d="M134.261 231s1.565-5.194 2-9.683c.435-4.49 2.522-11.093 3.565-13.998 1.044-2.905 7.044-11.356 8.174-16.198L140.783 167 122 219.82s6.26 3.433 8.696 5.81c2.434 2.377 3.565 5.37 3.565 5.37m-31.106 12.999s-6.08.172-9.715-4.015c-5.629-6.481-8.716-19.037 0-24.984l23.56 7.88L103.155 244z"/><path fill="#B1DDDD" d="M170 137c0 11.046-8.954 20-20 20s-20-8.954-20-20 8.954-20 20-20 20 8.954 20 20"/><path fill="#FFF" d="M160 154c6.54-3.318 11-9.933 11-17.553 0-5.696-2.492-10.831-6.483-14.447 0 0 6.85 8.932 4.887 17.377C167.32 148.345 160 154 160 154"/><path fill="#80A2AA" d="M160.078 129.023s2.435-1.538 4.825-4.043c2.39-2.506 2.13-3.824 2.044-4.352-.088-.527-7.433-6.373-12.041-8.087-4.608-1.714-13.78-2.945-20.169 1.67-6.39 4.616-8.215 13.978-8.737 17.34 0 0 7.759 2.571 14.8 7.318 7.042 4.747 12.715 12.131 12.715 12.131l1.434-2.835.587-12.197 4.542-6.945z"/><path fill="#FFF" d="M134 114.216c6.536-4.621 15.917-3.39 20.63-1.673 4.712 1.717 12.226 7.571 12.315 8.1.09.528.356 1.848-2.09 4.357 0 0 1.72-2.36.421-4.394-1.298-2.034-12.52-10.35-22.227-9.23-8.076.932-9.049 2.84-9.049 2.84"/><path fill="#5D777F" d="M155.092 136.683l.908-7.57-.439-2.113c-2.642.812-4.561 3.247-4.561 6.125 0 1.951.882 3.699 2.273 4.875l1.819-1.317z"/><path fill="#4E5E66" d="M161 133a4 4 0 1 1-8 0 4 4 0 0 1 8 0"/><path fill="#6A8089" d="M161 133a3 3 0 1 1-6 0 3 3 0 0 1 6 0"/><path fill="#80A2AA" d="M151.872 139c-1.753-1.498-2.872-3.78-2.872-6.337 0-3.515 2.116-6.512 5.083-7.663l.917 1.663c-2.436.796-4.205 3.18-4.205 6 0 1.911.813 3.623 2.095 4.775L151.872 139z"/><path fill="#CEE56C" d="M130.962 131.374a2.013 2.013 0 0 1-2.348 1.59 1.985 1.985 0 0 1-1.576-2.338 2.013 2.013 0 0 1 2.348-1.59 1.986 1.986 0 0 1 1.576 2.338m16.009-17c-.16 1.085-.948 1.797-1.76 1.59-.813-.206-1.342-1.253-1.182-2.338.16-1.085.948-1.797 1.76-1.59.813.207 1.342 1.253 1.182 2.338"/><path fill="#2E505B" d="M130.217 131.321c1.307-2.126.967-4.775-.04-6.927-.434-.928-1.269-1.87-1.423-2.904-.306-2.048 2.245-3.737 3.757-4.632 3.75-2.222 8.76-2.623 12.94-1.514 1.687.448 2.195-2.249.515-2.695-4.636-1.23-10.109-.715-14.33 1.573-2.586 1.401-5.986 3.992-5.607 7.367.335 2.975 3.703 5.353 1.761 8.513-.922 1.5 1.513 2.706 2.427 1.22"/><path fill="#264249" d="M122 136.548l3.322-4.548s22.276 7.038 30.678 23c0 0-24.686-12.15-34-18.452"/><path fill="#1E353A" d="M126.271 139s12.557 3.062 18.101 6.71c5.544 3.648 13.159 9.25 13.893 10.75.735 1.498.735 2.54.735 2.54l-10.71-1.584-5.432-6.212-18.858-5.69 2.271-6.514z"/><path fill="#264249" d="M118 143.375l3.419-7.375 2.581.875-3.21 7.125z"/><path fill="#2E505B" d="M123.911 137l2.089 1.75-2.152 6.25-2.848-.875z"/><path fill="#CEE56C" d="M143.99 138.858a1 1 0 1 1-1.98.284 1 1 0 0 1 1.98-.284m10-3a1 1 0 1 1-1.98.284 1 1 0 0 1 1.98-.284"/><path fill="#2E505B" d="M153.354 136.273c1.275.428 2.8 1.29 3.212 2.666 1.066 3.55-2.786 3.945-4.954 3.344-2.7-.749-5.296-2.296-7.562-3.946-.685-.5-1.472.566-.785 1.066 3.006 2.19 7.892 5.483 11.763 4.376 2.07-.592 3.45-3.1 2.817-5.217-.53-1.77-2.35-2.97-3.998-3.524-.797-.268-1.294.966-.493 1.235"/><path fill="#FFF" d="M134.157 231.267s5.116 4.184 3.542 27.83c-1.574 23.647-.262 19.155-1.05 23.25-.786 4.096-2.492 4.492-2.754 6.738-.262 2.246-2.755 6.473-5.64 9.511-2.887 3.039-15.087 12.286-17.317 13.607-2.23 1.32-5.51 3.302-6.428 4.36-.918 1.056-3.935-.133-3.935-.133s-1.509-1.255-1.706-3.567c-.196-2.311-1.77-2.972-2.295-3.963-.525-.99-.263-2.642-.984-3.434-.722-.793-4.263-2.312-4.854-3.7-.59-1.386-1.05-1.849-1.836-2.113-.787-.264-1.771-.528-2.296-1.585-.525-1.057-.787-.463-1.902-.595-1.115-.132-1.574-.066-2.427-1.123-.853-1.056-1.115-.66-2.033-.594-.919.066-1.312 2.378-1.312 2.378s-.656-.727-.853-1.387c-.197-.66 0-1.387.394-1.718.393-.33.59-.198.984-.726.393-.529 2.099-1.52 3.476-1.453 1.377.066 3.083-.859 4-2.114.92-1.255 1.772-1.585 2.887-2.51 1.115-.925 1.377-2.906 2.82-3.435 1.443-.528 2.427-2.377 3.87-2.906 1.443-.528 2.755-2.113 3.017-3.368.263-1.255 2.427-3.105 4.198-3.567 0 0-.065-10.502.722-11.956.787-1.453 2.164-2.708 2.23-3.632.065-.925-1.509-4.096-1.509-7.53 0-3.435.59-4.624-.065-5.813-.656-1.189-2.034-1.585-2.1-4.36-.065-2.773-1.981-7.115 5.314-15.653 7.674-8.984 17.447-5.747 20.66-3.831 3.215 1.915 5.182 9.092 5.182 9.092"/><path fill="#4E5E66" d="M86.543 297.934c-.52-1.064-.781-.466-1.889-.599-1.107-.133-1.563-.066-2.41-1.13-.846-1.063-1.106-.664-2.018-.598-.912.067-1.303 2.393-1.303 2.393s-.651-.731-.846-1.396c-.196-.664 0-1.395.39-1.728.391-.332.587-.199.977-.73.391-.532 2.084-1.53 3.452-1.463 1.368.067 3.061-.864 3.973-2.126.912-1.263 1.758-1.596 2.865-2.526 1.107-.93 1.368-2.924 2.8-3.456 1.434-.532 2.41-2.392 3.843-2.924 1.433-.532 2.736-2.127 2.996-3.39.26-1.262 2.41-3.123 4.168-3.588 0 0-.065-10.567.717-12.03.781-1.462 2.149-2.724 2.214-3.655.065-.93-1.498-4.12-1.498-7.576 0-3.456.586-4.652-.065-5.849-.581-1.067-1.733-1.5-2.02-3.563 0 0 1.177 3.297 3.585 3.297s2.851 3.217 1.314 4.786c-1.538 1.568-.084 1.86.896 5.715.98 3.855-.568 4.296-1.227 7.199-.66 2.903.662 3.259.331 5.186s-2.293 1.579-1.642 3.57c.652 1.99 1.303 6.018-.39 6.018-1.694 0-5.08 1.42-5.08 2.617 0 1.196-1.954 4.52-3.778 4.52-1.823 0-3.386 2.257-4.689 5.448-1.302 3.191-2.94 1.444-4.26 2.792-1.322 1.349-1.406 4.786-1.406 4.786"/><path fill="#4E5E66" d="M78.345 298.823l-.132-.876s-.592-1.887.198-2.696c.79-.808 12.31-.134 18.367 9.165 6.056 9.299 3.818 12.398 3.818 12.398l-2.634 1.01s-2.896.944-5.53-1.549c-2.633-2.493-14.087-17.452-14.087-17.452"/><path fill="#FFF" d="M54 318.799s1.92-1.908 5.034-2.5c3.113-.592 4.57-2.17 5.365-2.894.795-.723 1.39-.92 2.517-1.842 1.126-.92 6.226-5.262 7.75-7.564 1.523-2.302 2.781-5.13 4.967-5.92 2.186-.789 9.472 4.408 12.585 10.13 3.113 5.722 2.384 5.59 2.384 6.84l.795 1.447s2.252-1.052 3.18-1.512c0 0 .661 1.118.33 1.907 0 0-9.67 4.21-12.85 6.38-3.179 2.17-11.988 8.025-12.451 11.51-.464 3.487.728 6.775 1.258 8.157.53 1.381 2.384 5.788 1.59 8.748-.795 2.96-1.193 5.13-3.71 6.314 0 0-2.45-.132-5.63-5.985-3.179-5.854-4.305-10.195-5.298-13.879-.994-3.683-1.259-4.736-3.577-7.432-2.318-2.697-1.788-3.026-1.59-4.341.2-1.316 1.855-3.618 1.855-3.618L54 318.799z"/><path fill="#4E5E66" d="M58.515 323L54 319.013s1.925-1.927 5.046-2.525c3.12-.598 4.58-2.193 5.377-2.924.797-.731 1.394-.93 2.523-1.86 1.129-.931 6.24-5.317 7.768-7.643 1.527-2.326 2.788-5.183 4.979-5.98 1.293-.47 4.364 1.163 7.307 3.77 0 0-7.53 1.679-8.846 5.799-1.316 4.12-14.328 8.505-15.656 11.96-1.328 3.456-3.983 3.39-3.983 3.39"/><g transform="translate(46 324)"><mask id="b" fill="#fff"><use xlink:href="#a"/></mask><path fill="#4E5E66" d="M.248.291s-.464 3.911 1.724 7.424c2.19 3.514 4.975 5.635 5.572 8.021.597 2.387-.133 6.231 2.321 9.943 2.454 3.713 7.23 9.877 15.852 9.28L8.605 4.999 5.289 1.352.248.292z" mask="url(#b)"/></g><path fill="#6A8089" d="M47 323.773l1.869-3.27L54.074 319s3.804 1.765 4.805 3.27c1.002 1.503-.8 3.269-1 4.119-.2.85-.802 1.7.266 2.942 1.068 1.242 2.937 3.53 3.404 4.642.467 1.112 4.738 10.397 4.738 10.397s1.535-1.243 3.204-.458c1.668.785 2.67 4.708 3.403 4.904.735.196 3.204-3.335 3.204-3.335s1.668 4.12.467 7.65c-1.201 3.531-2.603 4.447-3.604 4.839-1 .392-5.339-3.008-10.344-12.423-5.006-9.416-5.072-11.64-6.407-13.666-1.335-2.027-1.869-4.38-4.605-6.342L47 323.773z"/><path fill="#FFF" d="M49.336 293.009s2.555.991 3.472.991c.918 0 1.18-.86 1.966-.727.786.132 4.26-1.057 5.439-1.85 1.18-.793 2.555-1.586 3.341-1.917.787-.33 3.015-1.321 3.67-1.784.655-.462 1.31-1.718 2.62-2.247 1.311-.528 3.211-1.85 4.26-3.04 1.048-1.189 2.097-4.03 3.407-5.088 1.31-1.057 2.49-1.586 3.014-2.643.524-1.058.852-2.313 1.638-2.71.787-.396 1.77-1.19 1.966-1.784.197-.595.72.066 2.424-1.916 1.704-1.983 1.77-4.163 3.211-5.948 1.442-1.784 1.507-1.718 2.097-3.502.59-1.784 1.638-1.784 1.9-2.776.262-.99 1.704-2.379 1.835-3.898.13-1.52 2.62-2.247 2.883-3.305.262-1.057 4.521-5.88 4.521-5.88s-12.843-2.446-13.367-14.34c-.476-10.814 3.422-14.217 3.604-14.275L83.605 211s-1.114 3.436-1.31 4.824c-.197 1.388-1.115 2.445-1.9 2.908-.787.462-2.49 4.229-2.818 5.485-.328 1.255-4.587 5.286-5.898 8.855-1.31 3.568-.327 4.361-1.769 5.286-1.441.925-2.817 1.718-4.259 3.304-1.441 1.586-3.604 3.437-4.586 4.494-.983 1.057-2.621 1.586-3.146 3.04-.524 1.454-.327 1.916-.786 3.04-.459 1.123-.983 3.568-.655 4.427 0 0-.328.529-.262 1.058.065.528-1.966.99-2.032 1.586-.065.594-.72 1.586-1.703 1.718-.983.132-3.407-.265-4.128.727-.72.99-.655 1.453-1.18 1.652-.524.198-.786.793-.786 1.19 0 .396-1.77.924-2.752 1.783-.983.86-.72 2.181-2.162 2.445-1.442.265-2.621.86-3.473 2.115l11.336 22.072z"/><path fill="#4E5E66" d="M42.679 280L38 270.928c.855-1.255 2.04-1.85 3.487-2.114 1.447-.264 1.184-1.586 2.171-2.445.987-.859 2.763-1.387 2.763-1.784 0-.396.264-.99.79-1.189.526-.198.46-.66 1.184-1.652.724-.99 3.158-.594 4.145-.727.987-.132 1.645-1.123 1.71-1.717.067-.595 2.106-1.058 2.04-1.586-.065-.529.264-1.057.264-1.057-.33-.86.197-3.304.657-4.427.461-1.124.264-1.586.79-3.04.526-1.453 2.171-1.982 3.158-3.039.987-1.057 3.158-2.907 4.606-4.493 1.447-1.586 2.829-2.379 4.276-3.304 1.448-.925.46-1.718 1.776-5.286 1.316-3.567 5.593-7.598 5.922-8.853.329-1.256 2.04-5.022 2.829-5.484.79-.463 1.71-1.52 1.908-2.908.197-1.387 1.316-4.823 1.316-4.823l4.066 1.417s.824 4.926-1.5 7.26c-2.325 2.335-5.79 2.685-5.79 5.99s-.155 9.41-2.644 10.256c-2.488.846-4.067 6.182-4.067 8.535 0 2.354-3.454 2.078-5.719 4.352-.864.869-.254 3.996-1.43 5.984-1.14 1.929-3.263.613-3.708 1.664-1.021 2.412-.745 5.095-2.445 5.55-3.951 1.058-6.31 1.833-8.406 3.938-2.097 2.106-1.727 3.608-3.162 5.048-1.434 1.441-6.308 5.555-6.308 9.006"/><path fill="#4E5E66" d="M36.105 277.534s-.729-3.87 1.656-5.94c2.386-2.068 10.27 1.402 15.042 8.21 4.77 6.807 3.18 11.211 1.722 12.48-1.457 1.267-3.975.467-3.975.467l-14.445-15.217z"/><path fill="#FFF" d="M11.438 326s2.847-.575 4.6-1.726c1.752-1.151 2.76-2.745 2.934-3.895.176-1.151 1.49-5.622 2.279-6.994.788-1.371 1.752-1.637 2.365-2.124.613-.487 3.242-3.231 3.767-4.25.526-1.017 4.688-4.337 8.718-7.214 4.03-2.877 12.046-6.108 14.894-8.675 2.848-2.567-.963-8.985-3.899-11.73-2.935-2.744-6.352-4.204-8.41-4.381-2.06-.177-3.286 1.859-4.338 3.806-1.05 1.948-7.972 9.384-10.6 12.172C21.119 293.777 11 303.029 11 303.029L11.438 326z"/><path fill="#4E5E66" d="M21.794 310L11 302.48s10.092-9.07 12.714-11.804c2.62-2.734 9.524-10.024 10.572-11.934 1.049-1.909 2.272-3.905 4.326-3.731 2.053.173 5.461 1.605 8.388 4.296 0 0-4.493.868-10.66 5.12C21.792 294.457 21.794 310 21.794 310"/><g transform="translate(0 302)"><mask id="d" fill="#fff"><use xlink:href="#c"/></mask><path fill="#4E5E66" d="M9.744 3.852s.713-3.305 3.922-3.74c3.21-.434 7.846 2.957 8.648 5.74.802 2.782-.624 4.173-1.783 4.695-1.159.522-3.075 1.479-3.432 2.218-.357.739-1.293 2.217-1.605 4.609-.312 2.39-.535 4.739-2.006 5.695-1.47.957-2.674.782-3.7.044-1.024-.74-7.844-7.261-8.646-8.131-.803-.87-1.261-2.414-1.115-4.174C.16 9.199.785 8.113 3.102 6.46 5.928 4.447 7.16 5.374 9.744 3.852" mask="url(#d)"/></g><path fill="#6A8089" d="M67 161.093s-1.863-1.228-2.396-2.017c-.532-.79-1.68-1.053-2.3-1.053-.622 0-1.249-.263-1.582.987-.078.297-.443.745-.443.745s-.91.46-1.575.636c-.665.176-1.509 1.272-1.775 2.588 0 0-1.42.394-1.641 1.14-.222.746-.133 2.983-.133 2.983s-1.198.57-1.154 1.534c.045.965.133 3.246.621 3.64.489.395.577.965 1.376.615.798-.351 1.375-1.14 1.508-1.623.133-.482.133-.877.133-.877s2.307 1.271 4.925 2.324L67 161.093z"/><path fill="#FFF" d="M62.038 169.158c.17-2.207.877-4.117 2.236-5.754 1.36-1.638 3.376-2.833 4.91-2.833 1.535 0 1.799.177 2.15-.221.35-.399 1.71-1.461 2.762-1.639 1.052-.176 1.227-.176 1.622-.398.395-.22 2.28-1.062 3.376-.93C80.19 157.517 90.362 149.77 99 148l-13.768 30.144s-4.779 1.283-6.577.708c-1.797-.576-3.638.31-4.472 0-.833-.31-2.28-.93-2.718-.886-.439.045-3.157.664-4.78-.088-1.622-.753-5.085-3.01-4.647-8.72"/><path fill="#4E5E66" d="M91 166l-5.553 12.137s-4.824 1.293-6.638.713-3.673.313-4.513 0c-.841-.312-2.301-.936-2.744-.891-.442.044-3.186.669-4.823-.09-1.637-.758-5.133-3.032-4.69-8.784 0 0 .885 5.643 4.646 6.277 3.761.635 1.77-1.101 4.558-1.101 2.787 0 .975 2.08 3.872 2.08 2.898 0 4.13-2.08 6.302-2.08C83.588 174.26 91 166 91 166"/><path fill="#2E505B" d="M117.443 222s-4.567-1.75-3.513-11.294c1.054-9.544 6.675-24.603 10.188-33.621 3.513-9.018 10.539-22.239 18.882-25.566 0 0-27.138-8.317-29.157-8.93-2.02-.613-8.783-1.664-11.857 2.451s-10.012 16.723-12.998 24.603c-2.986 7.88-9.485 26.528-8.958 32.92.527 6.392 2.986 8.055 5.182 8.756 2.195.7 32.231 10.681 32.231 10.681"/><path fill="#CEE56C" d="M135.461 149.209l7.539 2.31c-8.343 3.327-15.369 16.548-18.882 25.566-3.513 9.018-9.134 24.077-10.188 33.62-1.054 9.544 3.514 11.295 3.514 11.295l-8.3-2.757s-1.537-1.446-2.854-7.137c-1.318-5.69 2.37-16.985 3.688-20.575s-1.669-4.727-2.81-5.166c-1.142-.437-10.539-3.326-13.086-4.114-2.547-.788-3.337.262-4.303 1.926-.967 1.663-3.952 7.88-5.006 13.658-1.054 5.779 3.286 14.418 3.286 14.418a514.92 514.92 0 0 0-2.847-.935c-2.196-.7-4.655-2.364-5.182-8.755-.527-6.391 5.972-25.04 8.958-32.92 2.986-7.88 9.924-20.488 12.998-24.602 3.074-4.116 9.837-3.065 11.856-2.452l1.778.543s-5.203 2.434-6.344 3.922c-1.142 1.488-2.108 3.152 0 4.028 2.108.875 13.261 4.115 14.666 4.64 1.406.525 3.338 1.225 5.27-1.401 1.932-2.627 6.25-5.112 6.25-5.112"/><path fill="#264249" d="M116.632 223s-4.518-1.764-3.476-11.378c1.043-9.613 6.604-24.783 10.08-33.868 3.475-9.084 10.426-22.402 18.68-25.754l4.084 5.998-24.763 62.532-4.605 2.47z"/><path fill="#1E353A" d="M122 220l4.421-2.976L150 160.227 142.632 152l4.074 5.95z"/><path fill="#2E505B" d="M116.869 171.076c-.863 5.174-5.758 8.662-10.933 7.79-5.174-.87-8.669-5.769-7.805-10.942.863-5.173 5.758-8.661 10.932-7.79 5.175.87 8.67 5.77 7.806 10.942"/><path fill="#1E353A" d="M113.897 169.745a7.487 7.487 0 0 1-8.632 6.15 7.51 7.51 0 0 1-6.162-8.64 7.487 7.487 0 0 1 8.631-6.15 7.511 7.511 0 0 1 6.163 8.64"/><path fill="#CEE56C" d="M142 148a2 2 0 1 1-4 0 2 2 0 0 1 4 0"/><path fill="#6A8089" d="M129.124 177.151c-1.626-.431-3.254-1.276-4.462-2.422-3.033-2.874-1.369-6.88.503-9.921 2.194-3.564 5.059-7 7.908-10.092 1.752-1.903 4.708-3.612 7.005-3.797 2.551-.205 2.574-4.118 0-3.911-3.586.29-7.096 2.105-9.544 4.637-3.686 3.813-7.627 8.474-9.957 13.213-1.91 3.888-2.474 8.367.535 11.875 1.735 2.02 4.346 3.5 6.946 4.19 2.492.66 3.555-3.112 1.066-3.772"/><path fill="#CEE56C" d="M107.945 167.664a3.993 3.993 0 0 1-4.603 3.28 4.006 4.006 0 0 1-3.287-4.608 3.993 3.993 0 0 1 4.603-3.28 4.005 4.005 0 0 1 3.287 4.608"/><g transform="translate(46)"><mask id="f" fill="#fff"><use xlink:href="#e"/></mask><path fill="#2E505B" d="M57.5 162.831c2.092.268.321-.041-.262-.246 1.174.411-.261-.163-.562-.334a22.68 22.68 0 0 1-1.519-.985c-4.316-3.338-7.057-8.407-9.447-13.182-3.59-7.174-5.897-15.412-13.302-19.594-6.274-3.542-13.41-4.98-19.233-9.411-2.491-1.894-4.643-4.374-5.016-7.516-.39-3.287.931-6.7 2.53-8.58 4.587-5.395 12.332-8.206 18.87-10.85 8.626-3.49 17.539-6.655 25.503-11.543 6.289-3.86 13.476-9.638 15.193-17.232 1.445-6.39-1.547-12.037-5.446-16.886-5.1-6.343-11.406-11.61-16.595-17.888-5.792-7.006-9.775-15.205-9.95-24.411-.096-5.104-8.045-5.12-7.948 0 .175 9.196 3.336 17.845 8.645 25.314 4.626 6.507 10.372 11.974 15.872 17.716 2.296 2.398 4.309 4.566 5.871 7.046.337.534.656 1.08.946 1.643.167.324.33.652.473.987-.28-.66-.049-.09-.003.042.229.656.41 1.316.55 1.996.217 1.064-.03-.54.014.122.026.398.033.79.032 1.19-.003 1.02.14.035-.125 1.018-.102.375-.636 1.938-.46 1.54-.644 1.452-1.57 2.796-2.607 3.993-2.82 3.26-6.313 5.74-10.032 7.878-7.882 4.53-16.522 7.494-24.885 10.981-7.438 3.1-15.742 6.515-20.7 13.193-5.19 6.992-4.822 16.71.852 23.232 2.664 3.062 6.266 5.329 9.863 7.138 1.627.819 3.294 1.55 4.97 2.26 1.537.65 4.135 1.692 5.112 2.107 1.7.722 3.363 1.527 4.922 2.519 1.152.733 2.098 1.769 2.822 2.921 2.912 4.634 4.76 9.982 7.286 14.83 3.524 6.763 9.372 15.859 17.766 16.933 2.133.273 3.974-2.02 3.974-3.97 0-2.373-1.835-3.697-3.974-3.97" mask="url(#f)"/></g><path fill="#FFF" d="M107.858 167c0-2.366-1.833-3.687-3.97-3.96 2.09.267.322-.04-.261-.245 1.172.41-.261-.163-.562-.333a22.398 22.398 0 0 1-1.517-.983c-4.312-3.328-7.05-8.383-9.437-13.146-3.587-7.154-5.891-15.37-13.29-19.54-6.267-3.532-13.395-4.967-19.213-9.385-2.488-1.89-4.638-4.362-5.01-7.495-.39-3.279.93-6.681 2.526-8.556 4.583-5.381 12.32-8.185 18.85-10.822 8.619-3.48 17.523-6.636 25.478-11.51 6.283-3.85 13.463-9.612 15.179-17.185 1.443-6.373-1.546-12.005-5.44-16.84-5.096-6.326-11.396-11.58-16.58-17.84-5.785-6.986-9.764-15.163-9.939-24.344-.046-2.434-1.887-3.708-3.785-3.816 0 0 1.846.686 2.11 2.76.733 5.79 1.303 15.504 7.548 23.319 9.213 11.527 25.83 26.218 24.242 34.493-1.588 8.276-10.001 15.827-21.822 21.115-11.821 5.288-35.682 9.979-39.656 21.076-2.601 7.262-1.895 13.7 7.39 19.845 8.8 5.826 20.583 6.961 23.498 12.872 2.914 5.91 7.733 20.967 15.146 25.81 6.237 4.075 8.515 4.71 8.515 4.71"/><path fill="#4E5E66" d="M191 226s.627 4.01 2.417 5.484c1.79 1.474 2.776-.553 2.552-1.797-.224-1.244-.224-2.397-.224-2.397L193.5 226H191z"/><g transform="translate(180 215)"><mask id="h" fill="#fff"><use xlink:href="#g"/></mask><path fill="#6A8089" d="M.206 10.432s12.41 1.036 15.49 3.243c0 0 1.385 2.748 1.697 4.46.313 1.711 1.027 1.666 1.607 1.441.58-.225 1.473-.766 1.295-3.333-.178-2.568-.09-2.118-.09-2.118s.313 3.514 1.25 4.235c.938.72 2.456.225 2.68-3.378 0 0 1.607 1.981 2.187 1.981.58 0 1.473-.72 1.16-2.882-.312-2.163-1.696-4.28-1.696-4.28s2.768.63 3.393.54c.625-.09 1.027-1.216.357-2.162-.67-.945-5.402-3.738-6.518-4.234-1.116-.495-2.99-.45-4.152-.9-1.16-.45-6.696-1.217-7.857-1.082C9.85 2.098 6.902.252 6.902.252S3.108 4.53.206 10.432" mask="url(#h)"/></g><path fill="#FFF" d="M149.08 157.414c6.595-1.882 11.69 2.957 13.792 8.43 2.102 5.473-.485 9.66.657 10.8 1.142 1.14 1.077 4.969 1.182 7.559.066 1.608.788 2.723 1.38 3.05.59.328 1.379 1.115 1.51 1.968s.131 2.623 1.773 3.541c1.642.919 2.102 1.312 2.43 2.493.328 1.18.197 2.164 1.248 3.016 1.05.853 1.872.952 2.332 1.804.46.853.23 1.509 1.017 1.837.789.327 1.051.491 1.544 1.049.492.557.066 1.05.69 1.246.624.197 1.871.688 2.2 1.64.328.95-.427 1.672.82 2.426 1.248.754 1.873-.262 3.449 1.377 1.576 1.64 2.134 3.509 1.806 5.673-.329 2.164-2.43 5.41-4.63 7.444-2.2 2.032-3.81 2.36-6.37 2.196-2.562-.164-3.482-1.64-3.679-2.13a4.54 4.54 0 0 0-1.412-1.87c-.82-.656-1.708-1.213-2.036-1.672-.328-.46-1.346-1.083-2.266-1.705-.92-.624-4.269-2.82-6.338-4.985-2.069-2.164-2.89-3.607-4.006-4.721-1.116-1.115-3.054-2.82-4.4-4.722-1.346-1.902-3.678-3.378-4.269-4.755-.591-1.378-.394-4.067-1.38-5.772-.984-1.705-3.546-6.427-4.334-11.739-.788-5.312-1.537-10.676.657-16.986 1.642-4.722 4.794-5.968 6.633-6.492"/><path fill="#4E5E66" d="M182 222.753c-2.185 2.045-3.783 2.375-6.327 2.21-2.544-.165-3.458-1.65-3.653-2.144a4.57 4.57 0 0 0-1.403-1.88c-.815-.66-1.696-1.221-2.022-1.683-.326-.462-1.337-1.09-2.25-1.716-.914-.627-4.24-2.837-6.296-5.015-2.054-2.177-2.87-3.629-3.979-4.75-1.109-1.122-3.033-2.838-4.37-4.751-1.337-1.914-3.653-3.399-4.24-4.784-.587-1.386-.392-4.091-1.37-5.807-.979-1.715-3.523-6.466-4.305-11.81-.783-5.346-1.527-10.742.652-17.09 1.63-4.751 4.762-6.005 6.588-6.533 0 0-4.435 4.691-3.783 8.482.652 3.79 3.151 7.004 1.641 11.072-1.51 4.068-.402 8.71.882 10.007 1.282 1.298 2.657 5.43 2.657 8.258 0 2.827 1.656 3.47 3.866 5.704 2.209 2.235 1.805 4.698 3.873 6.79 2.07 2.093 4.844 2.14 7.564 4.89 2.72 2.751 1.364 5.238 4.009 6.03 2.645.792 3.837-.082 5.614 1.716 1.777 1.797 6.652 2.804 6.652 2.804"/></g></svg>