<svg xmlns="http://www.w3.org/2000/svg" width="162" height="20" viewBox="0 0 162 20">
    <g fill="none" fill-rule="evenodd">
        <path fill="#FFF" d="M150.374 7.595c1.534-.115 2.829-.088 4.066-.34 1.205-.243 1.837-1.793 1.27-2.702-.397-.637-3.987-1.06-4.524-.518-.114.115-.164.31-.198.476-.194.931-.373 1.865-.614 3.084zm-1.612 7.48c1.787-.169 3.344-.177 4.828-.502 1.025-.225 1.553-1.175 1.417-2.246-.138-1.084-1.028-1.33-1.968-1.374-.93-.043-1.868-.083-2.793-.017-.294.02-.744.337-.81.597-.27 1.05-.42 2.13-.674 3.541zM162 4.891c-.898 1.654-1.812 3.293-4.26 3.935 2.7.843 3.608 2.402 3.191 4.712-.416 2.305-2.63 4.612-5.074 5.008-1.746.283-3.534.376-5.307.418-2.794.066-5.591.018-8.55.018 1.356-6.372 2.68-12.596 4.039-18.976h4.771c2.092 0 4.183.023 6.274-.006 2.215-.03 4.033.566 4.916 2.786v2.105zM54.915 12.004c.155 1.765.916 2.961 2.326 3.382 1.573.47 3.652-.14 4.618-1.459 1.362-1.858 1.913-4.021 1.918-6.26.005-2.13-1.416-3.308-3.503-3.1-1.766.175-3.249.946-3.908 2.636-.607 1.554-.977 3.197-1.45 4.801zM55.226 20c-.242-.093-.476-.214-.726-.273-4.01-.94-6.014-3.989-5.387-8.044.546-3.525 1.694-6.763 4.623-9.04C57.483-.268 61.748-.636 66.134.865c2.616.895 3.908 3.071 3.865 5.715-.076 4.684-1.506 8.887-5.737 11.56-1.396.882-3.125 1.255-4.702 1.861h-4.334zM33.147 11.768c-.064 2.596 1.222 3.838 3.512 3.73 1.798-.085 3.182-.928 3.827-2.533.64-1.596 1.162-3.28 1.411-4.973.322-2.187-1.35-3.705-3.574-3.407-.782.104-1.608.382-2.265.803-2.472 1.584-2.532 4.232-2.911 6.38zM33.253 20c-.198-.086-.388-.207-.596-.255-3.99-.917-5.924-3.26-5.627-7.244.31-4.175 1.72-7.943 5.445-10.4C36.111-.3 40.12-.54 44.175.852c2.263.778 3.648 2.522 3.788 4.917.294 4.992-1.14 9.358-5.526 12.284-1.408.939-3.207 1.313-4.827 1.946h-4.357zM123 .127c-1.604 3.636-3.1 7.032-4.6 10.427-1.06 2.402-2.15 4.792-3.177 7.208-.367.862-.83 1.305-1.882 1.23-1.467-.105-2.948-.027-4.56-.027l-.859-11.368-.257-.077c-.587 1.135-1.183 2.266-1.759 3.405-1.166 2.31-2.366 4.605-3.456 6.948-.398.856-.898 1.158-1.84 1.112-1.473-.073-2.954-.02-4.61-.02V.232h5.377v10.109c1.137-2.235 2.13-4.198 3.135-6.156.678-1.323 1.046-3.17 2.15-3.812 1.168-.68 3.044-.216 4.61-.242.264-.004.528.04.95.073l.697 9.883.197.077c.339-.765.693-1.525 1.014-2.298.926-2.224 1.871-4.441 2.738-6.687.296-.764.678-1.113 1.555-1.07 1.427.068 2.86.018 4.577.018M0 18.98L4.096.013c2.403 0 4.743.026 7.08-.013 1.002-.016.909.638.935 1.237.139 3.232.267 6.466.66 9.824.22-.417.457-.827.661-1.252C14.865 6.84 16.275 3.86 17.74.906c.181-.365.637-.841.979-.852C21.093-.02 23.472.015 26 .015c-.316 1.596-.58 3.046-.892 4.486-.974 4.491-1.983 8.975-2.935 13.47-.153.724-.398 1.065-1.215 1.025-1.256-.061-2.519-.016-3.939-.016l2.913-13.46a221.39 221.39 0 0 1-.234-.087c-1.118 2.31-2.236 4.618-3.351 6.928-.917 1.9-1.861 3.788-2.728 5.708-.324.717-.767.97-1.55.926-1.07-.059-2.144-.014-3.35-.014L8.13 5.515l-.257-.032c-.288 1.322-.574 2.644-.863 3.966-.627 2.866-1.277 5.727-1.868 8.6-.14.681-.403.973-1.146.944C2.74 18.944 1.481 18.98 0 18.98M72 .08h6.224l1.385 13.082.284.057c1.284-2.382 2.57-4.762 3.85-7.146.913-1.704 1.83-3.406 2.72-5.122.333-.644.741-.985 1.556-.948 1.558.07 3.122.02 4.981.02-.967 1.65-1.803 3.105-2.666 4.544-2.665 4.453-5.355 8.892-8 13.356-.454.765-.97 1.117-1.915 1.073-1.74-.079-3.487-.022-5.302-.022L72 .08"/>
        <path fill="#0C80C3" d="M121.056 18.827c-.035-.135-.062-.18-.055-.218.723-3.609.723-3.609 4.57-3.609H140c-.213 1.205-.31 2.217-.603 3.173-.107.35-.676.808-1.037.81-5.673.036-11.347.006-17.02-.014-.08 0-.16-.078-.284-.142"/>
        <path fill="#F69020" d="M125.056 3.827c-.035-.135-.062-.18-.055-.218C125.724 0 125.724 0 129.571 0H144c-.213 1.205-.31 2.217-.603 3.173-.107.35-.676.808-1.037.81-5.673.036-11.347.006-17.02-.014-.08 0-.16-.078-.284-.142"/>
        <path fill="#5FB146" d="M123.056 10.827c-.035-.135-.062-.18-.055-.218C123.724 7 123.724 7 127.571 7H142c-.213 1.205-.31 2.217-.603 3.173-.107.35-.676.808-1.037.81-5.673.036-11.347.006-17.02-.014-.08 0-.16-.078-.284-.142"/>
    </g>
</svg>
