<svg xmlns="http://www.w3.org/2000/svg" width="324" height="40" viewBox="0 0 324 40">
    <g fill="#FFF" fill-rule="evenodd">
        <path d="M50 33.846l5.23-7.49c2.761 2.789 7.014 5.11 12.246 5.11 3.392 0 5.462-1.336 5.462-3.194 0-5.283-21.732-1.043-21.732-15.965C51.206 5.804 56.668 0 66.5 0c6.15 0 11.497 1.858 15.579 5.4l-5.404 7.14c-3.22-2.672-7.417-4.007-11.211-4.007-2.875 0-4.138 1.161-4.138 2.787C61.326 16.256 83 12.656 83 27.053 83 34.833 77.307 40 67.017 40c-7.76 0-13.165-2.438-17.017-6.154M117.691 20c0-6.318-4.182-11.188-10.66-11.188-6.541 0-10.722 4.87-10.722 11.189 0 6.26 4.181 11.188 10.721 11.188 6.479 0 10.661-4.927 10.661-11.188M86 20C86 8.232 95.012 0 107.03 0 119.046 0 128 8.232 128 20c0 11.77-8.954 20-20.97 20C95.012 40 86 31.77 86 20M134 39V1h28v8.547h-18.15v5.924h17.75v8.545h-17.75V39zM176.637 39V9.547H166V1h31v8.547h-10.58V39zM204 39V1h28v8.547h-18.15v5.924h17.75v8.545h-17.75v6.438H232V39zM236 33.846l5.232-7.49c2.76 2.789 7.014 5.11 12.245 5.11 3.392 0 5.462-1.336 5.462-3.194 0-5.283-21.732-1.043-21.732-15.965C237.207 5.804 242.67 0 252.5 0c6.152 0 11.498 1.858 15.58 5.4l-5.404 7.14c-3.22-2.672-7.416-4.007-11.21-4.007-2.875 0-4.139 1.161-4.139 2.787 0 4.936 21.673 1.336 21.673 15.733C269 34.833 263.308 40 253.019 40c-7.763 0-13.167-2.438-17.019-6.154M275 39h10V1h-10zM291 33.846l5.232-7.49c2.76 2.789 7.014 5.11 12.245 5.11 3.392 0 5.462-1.336 5.462-3.194 0-5.283-21.732-1.043-21.732-15.965C292.207 5.804 297.67 0 307.5 0c6.152 0 11.498 1.858 15.58 5.4l-5.404 7.14c-3.22-2.672-7.416-4.007-11.21-4.007-2.875 0-4.139 1.161-4.139 2.787 0 4.936 21.673 1.336 21.673 15.733C324 34.833 318.308 40 308.019 40c-7.763 0-13.167-2.438-17.019-6.154M8.223 2.33A30.956 30.956 0 0 1 11 1H0v10c1.201-3.223 3.923-6.318 8.223-8.67M24.203 7.396c-4.446-1.018-9.019-.013-12.667 2.11-3.272 1.903-4.26 4.425-3.02 6.588 3.282 5.73 21.628-10.064 29.34 3.4.469.82.851 1.657 1.144 2.506V1H25.008l-.805 6.396zM30.138 39.378c-.38.22-.76.424-1.138.622h10V30c-1.215 3.374-4.075 6.627-8.862 9.378M12.327 34.08a17.869 17.869 0 0 0 14.244-1.789c4.208-2.485 5.139-5.683 3.955-7.78C26.849 17.997 8.65 34.704.83 20.851.493 20.253.228 19.632 0 19v21h11.771l.556-5.92z"/>
    </g>
</svg>
